<?xml version="1.0" encoding="utf-8"?>
<!-- Generator: Adobe Illustrator 22.1.0, SVG Export Plug-In . SVG Version: 6.00 Build 0)  -->
<svg version="1.1" id="Ebene_1" 
    xmlns="http://www.w3.org/2000/svg" 
    xmlns:xlink="http://www.w3.org/1999/xlink" x="0px" y="0px" viewBox="0 0 277 600" style="enable-background:new 0 0 277 600;" xml:space="preserve">
    <style type="text/css">
	.st0{clip-path:url(#SVGID_2_);}
	.st1{fill:#FFFFFF;fill-opacity:0.8;}
	.st2{fill:#F2C94C;}
	.st3{fill:#F4DD95;}
	.empty{fill:#E7EBF5; clip-path: url(#cp);}
	.empty-left{fill:#FFFFFF; clip-path: url(#cp);}
	.st4{fill:#FFFFFF;filter:url(#Adobe_OpacityMaskFilter);}
	.st5{mask:url(#mask0_1_);}
	.st6{fill:#FFFFFE;}
	.st7{fill:#E7EBF5;}
    </style>
    <g>
        <defs>
            <rect id="SVGID_1_" width="277" height="600"/>
        </defs>
        <clipPath id="SVGID_2_">
            <use xlink:href="#SVGID_1_" style="overflow:visible;"/>
        </clipPath>
        <defs>
            <clipPath id="cp">
                  <rect id="fill-rect" x="0" y="0" width="100%" height="100%" />
            </clipPath>
        </defs>
        <g class="st0">
            <path class="st1" d="M228.3,174.1c-10.5-30.5-15.8-62.5-15.8-94.6v-67H63.9v67c0,32.2-5.3,64.1-15.8,94.6L16,267.7
			C5.5,298.2,0.2,330.2,0.2,362.3C0.2,517,1.4,596.3,3.8,600c0,0,262.4,0,269.1,0c3.9-7.8,5-87,3.4-237.7c0-32.2-5.3-64.1-15.8-94.6
			L228.3,174.1z"/>
            <g id="bottle">
                <path id="full" class="st2" d="M210,179.1l32.2,93.8C252,301.3,257,330.9,257,361v217.2H22.6V361c0-30,5-59.7,14.7-88.2
				l32.2-93.7c11.2-32.7,16.9-66.8,16.9-101.3h106.5C193.1,112.2,198.8,146.3,210,179.1z"/>
                <path id="left" class="st3" d="M138.2,578.2H22.6V361c0-30,4.9-59.7,14.5-88.2l31.8-93.7C80,146.3,85.7,112.2,85.7,77.7h52.5
				V578.2z"/>
            </g>
            <g id="bottle-empty">
                <path id="empty" class="empty" d="M210,179.1l32.2,93.8C252,301.3,257,330.9,257,361v217.2H22.6V361c0-30,5-59.7,14.7-88.2
				l32.2-93.7c11.2-32.7,16.9-66.8,16.9-101.3h106.5C193.1,112.2,198.8,146.3,210,179.1z"/>
                <path id="left-empty" class="empty-left" d="M138.2,578.2H22.6V361c0-30,4.9-59.7,14.5-88.2l31.8-93.7C80,146.3,85.7,112.2,85.7,77.7h52.5
				V578.2z"/>
            </g>
            <defs>
                <filter id="Adobe_OpacityMaskFilter" filterUnits="userSpaceOnUse" x="0.6" y="11.2" width="139.7" height="588.3">
                    <feColorMatrix type="matrix" values="1 0 0 0 0  0 1 0 0 0  0 0 1 0 0  0 0 0 1 0"/>
                </filter>
            </defs>
            <mask maskUnits="userSpaceOnUse" x="0.6" y="11.2" width="139.7" height="588.3" id="mask0_1_">
                <path class="st4" d="M4.1,600.1c-5.7-5.4-6.9-85-3.5-238.6c0-32.2,5.4-64.2,16-94.8L49.1,173c10.6-30.5,16-62.5,16-94.8V11.2
				h75.2v67.1H86.6c0,34.5-5.8,68.6-17.1,101.3L37,273.3c-9.9,28.5-14.9,58.1-14.9,88.2v217.2l118.2-0.6v23.5
				C49.5,600.7,4.1,600.1,4.1,600.1z"/>
            </mask>
            <g class="st5">
                <path class="st6" d="M0.6,599.5h139.7V11.2H0.6V599.5z"/>
            </g>
            <path class="st2" d="M104.7,241.5c-7.2,0-13,6.1-13,13.5c0,7.5,5.8,13.5,13,13.5c7.2,0,13.1-6.1,13.1-13.5
			C117.8,247.6,111.9,241.5,104.7,241.5z"/>
            <path class="st2" d="M90,350.9c-7.2,0-13,6.1-13,13.5c0,7.5,5.8,13.5,13,13.5c7.2,0,13.1-6.1,13.1-13.5
			C103.1,357,97.2,350.9,90,350.9z"/>
            <path class="st2" d="M104.7,458.2c-7.2,0-13,6.1-13,13.5c0,7.5,5.8,13.5,13,13.5c7.2,0,13.1-6.1,13.1-13.5
			C117.8,464.3,111.9,458.2,104.7,458.2z"/>
            <path class="st2" d="M63.9,296.8c-7.2,0-13.1,6.1-13.1,13.5c0,7.5,5.8,13.5,13.1,13.5c7.2,0,13.1-6.1,13.1-13.5
			C77,302.8,71.1,296.8,63.9,296.8z"/>
            <path class="st2" d="M74.4,405.1c-7.2,0-13.1,6.1-13.1,13.5c0,7.5,5.8,13.5,13.1,13.5s13.1-6.1,13.1-13.5
			C87.5,411.2,81.6,405.1,74.4,405.1z"/>
            <path class="st2" d="M63.9,513.5c-7.2,0-13.1,6.1-13.1,13.5c0,7.5,5.8,13.5,13.1,13.5c7.2,0,13.1-6.1,13.1-13.5
			C77,519.6,71.1,513.5,63.9,513.5z"/>
            <path class="st7" d="M212.2,24.9h-148c-7,0-12.7-5.6-12.7-12.4C51.5,5.6,57.2,0,64.2,0h148c7,0,12.7,5.6,12.7,12.4
			C224.9,19.3,219.2,24.9,212.2,24.9z"/>
        </g>
    </g>
</svg>
