<svg width="337" height="327" viewBox="0 0 337 327" fill="none" xmlns="http://www.w3.org/2000/svg">
    <path fill-rule="evenodd" clip-rule="evenodd" d="M180.27 326.721C255.231 326.721 331.279 278.845 335.674 191.58C335.674 127.04 316.559 71.1749 229.704 71.1749C186.561 71.1749 182.264 92.5906 173.135 91.0203C167.143 89.9897 119.608 58.7375 73.9781 71.1749C34.2547 82.0025 0.530762 125.738 0.530762 181.148C0.530762 273.179 60.444 326.721 180.27 326.721Z" fill="#F72300"/>
    <path fill-rule="evenodd" clip-rule="evenodd" d="M222.755 71.8636C247.921 85.4084 268.536 107.59 276.865 143.457C294.82 220.763 248.193 304.502 156.648 325.914C158.59 325.97 159.821 326.084 161.802 326.205C292.262 334.162 352.881 241.849 332.04 142.179C314.354 79.3998 264.613 68.3308 222.755 71.8636Z" fill="#D60004"/>
    <path fill-rule="evenodd" clip-rule="evenodd" d="M90.2224 80.3249C8.91833 131.068 41.0258 254.967 41.0258 254.967C-7.5993 86.4525 90.2224 80.3249 90.2224 80.3249Z" fill="#FFBAAA"/>
    <path fill-rule="evenodd" clip-rule="evenodd" d="M228.802 0.773285L235.604 12.324C223.357 20.4196 212.453 30.4807 202.892 42.5071C188.55 60.5467 177.612 90.4907 177.612 90.4907C177.612 90.4907 176.899 90.5798 175.472 90.758C181.005 68.3557 187.097 51.6295 193.747 40.5792C200.398 29.5289 212.083 16.2603 228.802 0.773285Z" fill="#20344B"/>
    <path d="M94.9999 129.455C100.523 131.8 107.154 128.626 109.81 122.367C112.467 116.108 110.144 109.133 104.621 106.789C99.0984 104.445 92.4675 107.618 89.8107 113.878C87.1538 120.137 89.4771 127.111 94.9999 129.455Z" fill="#570001"/>
    <path d="M91.8458 258.459C103.868 255.238 110.654 241.582 107.003 227.957C103.352 214.332 90.6471 205.898 78.6252 209.12C66.6033 212.341 59.8172 225.997 63.4679 239.622C67.1187 253.247 79.8239 261.681 91.8458 258.459Z" fill="#570001"/>
    <path d="M247.642 160.046C254.624 160.168 260.392 154.038 260.527 146.354C260.661 138.67 255.109 132.343 248.128 132.221C241.146 132.099 235.377 138.229 235.243 145.913C235.109 153.596 240.66 159.924 247.642 160.046Z" fill="#570001"/>
    <path d="M308.544 175.892C313.759 175.436 317.199 166.055 316.227 154.939C315.254 143.823 310.238 135.182 305.022 135.638C299.806 136.094 296.367 145.475 297.339 156.591C298.312 167.707 303.328 176.348 308.544 175.892Z" fill="#570001"/>
    <path d="M224.586 131.372C229.907 131.465 234.303 126.794 234.405 120.938C234.507 115.083 230.277 110.261 224.956 110.168C219.636 110.075 215.24 114.747 215.138 120.602C215.035 126.457 219.266 131.279 224.586 131.372Z" fill="#570001"/>
    <path d="M125.768 174.246C130.818 175.319 135.827 171.884 136.956 166.572C138.085 161.261 134.906 156.085 129.857 155.012C124.807 153.939 119.798 157.374 118.669 162.685C117.54 167.997 120.719 173.172 125.768 174.246Z" fill="#570001"/>
</svg>