<svg width="337" height="327" viewBox="0 0 337 327" fill="none" xmlns="http://www.w3.org/2000/svg">
<path fill-rule="evenodd" clip-rule="evenodd" d="M180.27 326.721C255.231 326.721 331.279 278.845 335.674 191.58C335.674 127.04 316.559 71.1749 229.704 71.1749C186.561 71.1749 182.264 92.5906 173.135 91.0203C167.143 89.9897 119.608 58.7375 73.978 71.1749C34.2546 82.0025 0.53067 125.738 0.53067 181.148C0.53067 273.179 60.4439 326.721 180.27 326.721Z" fill="#F72300"/>
<path fill-rule="evenodd" clip-rule="evenodd" d="M222.755 71.8636C247.921 85.4084 268.536 107.59 276.865 143.457C294.82 220.763 248.193 304.502 156.648 325.914C158.59 325.97 159.821 326.084 161.802 326.205C292.262 334.162 352.881 241.849 332.04 142.179C314.354 79.3998 264.613 68.3308 222.755 71.8636Z" fill="#D60004"/>
<path fill-rule="evenodd" clip-rule="evenodd" d="M90.2222 80.3249C8.91811 131.068 41.0256 254.967 41.0256 254.967C-7.59953 86.4525 90.2222 80.3249 90.2222 80.3249Z" fill="#FFBAAA"/>
<path fill-rule="evenodd" clip-rule="evenodd" d="M228.802 0.773285L235.604 12.324C223.357 20.4196 212.453 30.4807 202.892 42.5071C188.55 60.5467 177.612 90.4907 177.612 90.4907C177.612 90.4907 176.899 90.5798 175.472 90.758C181.005 68.3557 187.097 51.6295 193.747 40.5792C200.398 29.5289 212.083 16.2603 228.802 0.773285Z" fill="#20344B"/>
</svg>