<svg width="330" height="307" viewBox="0 0 330 307" fill="none" 
    xmlns="http://www.w3.org/2000/svg">
    <path fill-rule="evenodd" clip-rule="evenodd" d="M75.8521 171.241C76.2321 166.75 81.8664 77.8899 186.207 1.58362C188.358 0.0115021 191.155 -0.225318 193.527 0.970182C195.892 2.16282 197.442 4.59946 197.577 7.32143C197.627 8.3571 197.337 103.997 244.938 149.368C247.868 152.165 247.636 151.655 244.938 154.693C242.239 157.732 237.293 157.492 234.355 154.693C192.797 115.077 193.103 41.4508 189.901 10.4992C92.3305 76.9548 92.4158 167.769 92.3304 168.762C92 172.651 87.7046 176.896 84.0062 176.896" fill="#20344B"/>
    <path fill-rule="evenodd" clip-rule="evenodd" d="M173.685 159.496C143.855 184.761 151.754 286.764 240.971 283.981C330.785 281.177 340.844 216.054 319.821 167.12C298.797 118.187 251.25 144.612 241.325 151.828C241.325 151.828 203.511 134.228 173.685 159.496Z" fill="#BA0965"/>
    <path fill-rule="evenodd" clip-rule="evenodd" d="M319.821 167.12C313.894 153.324 305.859 145.522 297.155 141.586C298.146 143.476 299.112 145.449 300.014 147.604C321.939 199.999 311.418 269.727 217.677 272.734C207.072 273.074 197.621 271.898 189.152 269.614C201.917 278.958 218.96 284.666 240.971 283.981C330.785 281.177 340.844 216.053 319.821 167.12Z" fill="#A10857"/>
    <path fill-rule="evenodd" clip-rule="evenodd" d="M210.361 160.602C211.039 160.649 211.416 160.696 211.416 160.696C174.832 173.686 173.192 215.799 173.192 215.799C159.804 159.402 202.992 160.087 210.361 160.602Z" fill="#FFC7DD"/>
    <path fill-rule="evenodd" clip-rule="evenodd" d="M82.9256 172.784C82.9256 172.784 44.8834 155.037 15.3674 180.739C-14.1487 206.444 -4.96629 309.871 84.2382 306.809C174.042 303.729 183.281 237.655 161.638 188.084C139.992 138.511 92.7643 165.441 82.9256 172.784Z" fill="#BA0965"/>
    <path fill-rule="evenodd" clip-rule="evenodd" d="M161.638 188.084C155.534 174.11 147.399 166.216 138.642 162.249C139.658 164.163 140.648 166.16 141.578 168.346C164.169 221.422 154.524 292.169 60.8001 295.467C50.1938 295.84 40.726 294.674 32.2256 292.379C45.1118 301.82 62.2296 307.565 84.2383 306.809C174.042 303.729 183.281 237.655 161.638 188.084Z" fill="#A10857"/>
    <path fill-rule="evenodd" clip-rule="evenodd" d="M19.0569 246.789C-3.91907 183.454 49.3433 183.454 49.3433 183.454C14.8794 201.966 19.0569 246.789 19.0569 246.789Z" fill="#FFC7DD"/>
    <path fill-rule="evenodd" clip-rule="evenodd" d="M107.129 196.84C104.568 196.082 103.331 192.857 104.366 189.63C105.399 186.407 108.309 184.405 110.872 185.159C113.433 185.917 114.669 189.145 113.635 192.368C112.603 195.597 109.69 197.598 107.129 196.84Z" fill="#061E33"/>
    <path fill-rule="evenodd" clip-rule="evenodd" d="M124.191 198.88C122.398 198.312 121.533 195.891 122.254 193.473C122.978 191.055 125.019 189.552 126.811 190.12C128.601 190.686 129.469 193.109 128.744 195.529C128.023 197.948 125.984 199.448 124.191 198.88Z" fill="#061E33"/>
    <path fill-rule="evenodd" clip-rule="evenodd" d="M91.1903 221.882C89.3976 221.314 88.5326 218.893 89.2549 216.471C89.9791 214.053 92.0178 212.553 93.8073 213.12C95.5999 213.687 96.4695 216.106 95.7439 218.527C95.0197 220.945 92.9811 222.445 91.1903 221.882Z" fill="#061E33"/>
    <path fill-rule="evenodd" clip-rule="evenodd" d="M281.866 182.856C278.356 181.781 276.659 177.188 278.076 172.599C279.493 168.01 283.488 165.165 287 166.241C290.51 167.316 292.207 171.909 290.79 176.497C289.373 181.086 285.378 183.932 281.866 182.856Z" fill="#061E33"/>
    <path fill-rule="evenodd" clip-rule="evenodd" d="M279.146 198.641C277.539 198.147 276.759 196.044 277.41 193.94C278.059 191.838 279.89 190.533 281.5 191.027C283.108 191.518 283.887 193.624 283.237 195.726C282.587 197.83 280.756 199.135 279.146 198.641Z" fill="#061E33"/>
    <path fill-rule="evenodd" clip-rule="evenodd" d="M230.124 189.264C228.213 188.678 227.29 186.179 228.061 183.681C228.833 181.184 231.008 179.634 232.919 180.219C234.829 180.807 235.753 183.304 234.982 185.802C234.21 188.3 232.035 189.849 230.124 189.264Z" fill="#061E33"/>
</svg>