<svg width="337" height="327" viewBox="0 0 337 327" fill="none" xmlns="http://www.w3.org/2000/svg">
    <path fill-rule="evenodd" clip-rule="evenodd" d="M180.27 326.721C255.231 326.721 331.279 278.845 335.674 191.58C335.674 127.04 316.559 71.1749 229.704 71.1749C186.561 71.1749 182.264 92.5906 173.135 91.0203C167.143 89.9897 119.608 58.7375 73.9781 71.1749C34.2547 82.0025 0.530762 125.738 0.530762 181.148C0.530762 273.179 60.444 326.721 180.27 326.721Z" fill="#F72300"/>
    <path fill-rule="evenodd" clip-rule="evenodd" d="M222.755 71.8636C247.921 85.4084 268.536 107.59 276.865 143.457C294.82 220.763 248.193 304.502 156.648 325.914C158.59 325.97 159.821 326.084 161.802 326.205C292.262 334.162 352.881 241.849 332.04 142.179C314.354 79.3998 264.613 68.3308 222.755 71.8636Z" fill="#D60004"/>
    <path fill-rule="evenodd" clip-rule="evenodd" d="M90.2224 80.3249C8.91833 131.068 41.0258 254.967 41.0258 254.967C-7.5993 86.4525 90.2224 80.3249 90.2224 80.3249Z" fill="#FFBAAA"/>
    <path fill-rule="evenodd" clip-rule="evenodd" d="M228.802 0.773285L235.604 12.324C223.357 20.4196 212.453 30.4807 202.892 42.5071C188.55 60.5467 177.612 90.4907 177.612 90.4907C177.612 90.4907 176.899 90.5798 175.472 90.758C181.005 68.3557 187.097 51.6295 193.747 40.5792C200.398 29.5289 212.083 16.2603 228.802 0.773285Z" fill="#20344B"/>
    <path d="M100.904 126.579C104.717 128.198 109.295 126.006 111.129 121.685C112.963 117.364 111.359 112.549 107.546 110.93C103.734 109.312 99.1556 111.503 97.3214 115.824C95.4871 120.146 97.0911 124.961 100.904 126.579Z" fill="#570001"/>
    <path d="M89.9049 251.004C98.33 248.747 103.086 239.176 100.527 229.628C97.9688 220.079 89.0649 214.169 80.6399 216.427C72.2148 218.684 67.4591 228.255 70.0175 237.803C72.576 247.351 81.4799 253.262 89.9049 251.004Z" fill="#570001"/>
    <path d="M249.722 138.132C253.987 138.207 257.511 134.462 257.593 129.768C257.675 125.075 254.284 121.209 250.019 121.135C245.754 121.06 242.23 124.805 242.148 129.499C242.066 134.192 245.457 138.058 249.722 138.132Z" fill="#570001"/>
    <path d="M306.571 176.065C310.698 175.704 313.643 170.839 313.149 165.198C312.656 159.558 308.911 155.278 304.784 155.639C300.658 156 297.713 160.865 298.206 166.506C298.7 172.146 302.445 176.426 306.571 176.065Z" fill="#570001"/>
    <path d="M227.885 125.055C231.135 125.112 233.82 122.259 233.883 118.682C233.945 115.105 231.361 112.159 228.111 112.103C224.861 112.046 222.175 114.9 222.113 118.476C222.051 122.053 224.635 124.999 227.885 125.055Z" fill="#570001"/>
    <path d="M122.146 157.502C125.632 158.243 129.09 155.871 129.87 152.204C130.649 148.537 128.455 144.964 124.969 144.223C121.482 143.482 118.024 145.854 117.245 149.521C116.466 153.187 118.66 156.761 122.146 157.502Z" fill="#570001"/>
</svg>