<svg width="381" height="442" viewBox="0 0 381 442" fill="none" 
    xmlns="http://www.w3.org/2000/svg">
    <g clip-path="url(#clip0)">
        <path fill-rule="evenodd" clip-rule="evenodd" d="M285.012 17.8002C295.844 45.3728 299.598 64.5126 296.274 75.2196C291.288 91.2801 287.963 94.0495 281.318 109.004C274.672 123.959 269.141 145.563 263.601 175.473C258.061 205.383 248.091 246.368 221.509 271.293C194.928 296.217 171.122 312.836 137.339 326.129C114.818 334.992 74.2065 346.439 15.5059 360.47C13.2291 359.072 10.9214 359.626 8.58268 362.131C2.43584 370.551 0.886129 383.512 0.664185 388.275C1.1075 400.904 4.17188 407.181 9.85735 407.107C42.7526 429.632 64.3631 435.395 93.8103 440.894C156.904 444.476 221.509 433.306 287.964 393.702C332.932 366.903 373.985 305.451 379.523 237.692C383.769 187.474 365.863 132.084 344.82 94.421C342.051 88.8821 333.929 79.6507 331.16 61.9264C329.314 50.1102 327.96 33.3701 327.097 11.7061C328.575 3.95263 322.668 0.75265 309.377 2.10611C296.086 3.45957 287.964 8.69094 285.012 17.8002Z" fill="#E0951B"/>
        <path fill-rule="evenodd" clip-rule="evenodd" d="M285.607 19.4145C296.042 45.9115 299.598 64.5135 296.274 75.2205C291.288 91.281 287.963 94.0505 281.318 109.005C274.672 123.96 269.141 145.564 263.601 175.474C258.061 205.383 248.091 246.369 221.509 271.294C194.928 296.218 171.122 312.837 137.339 326.13C114.818 334.992 74.2065 346.439 15.5059 360.471C19.1978 363.61 21.459 367.902 22.2897 373.349C23.1204 378.796 23.3509 383.549 22.9814 387.611C30.9192 395.735 48.1789 398.551 74.7603 396.058C114.632 392.32 206.301 366.992 239.951 338.712C273.6 310.433 293.362 292.205 313.854 214.938C316.762 200.952 324.521 142.797 314.549 102.915C309.147 78.6823 311.637 83.1134 308.868 65.3891C307.022 53.5729 304.299 39.8635 300.7 24.261C298.948 24.2624 296.733 23.9862 294.057 23.4323C291.38 22.8784 288.564 21.5392 285.607 19.4145Z" fill="#F2C94C"/>
        <path fill-rule="evenodd" clip-rule="evenodd" d="M21.9435 390.59C20.4204 399.382 16.8211 406.582 7.19916 406.441C1.24604 406.305 1.10732 387.957 1.31526 383.665C1.31526 377.017 6.0672 360.194 12.4305 360.194C18.7938 360.194 23.6046 373.211 21.9435 390.59Z" fill="#061E33"/>
        <path fill-rule="evenodd" clip-rule="evenodd" d="M313.162 21.6322C322.23 17.1665 326.903 12.8393 326.903 9.10056C326.903 5.36183 323.545 0.0653131 307.347 2.24623C291.149 4.42715 285.854 13.7047 285.854 17.8589C285.854 22.013 299.594 27.2057 313.162 21.6322Z" fill="#061E33" stroke="black" stroke-width="3"/>
        <path fill-rule="evenodd" clip-rule="evenodd" d="M294.676 140C294.676 140 301.772 314.63 143.947 346.135C143.947 346.135 268.673 322.433 294.676 140Z" fill="#F5D982"/>
        <path fill-rule="evenodd" clip-rule="evenodd" d="M342.724 158.852C338.185 159.658 333.873 155.947 333.091 150.562C332.307 145.177 335.352 140.158 339.89 139.349C344.426 138.541 348.74 142.251 349.522 147.637C350.304 153.022 347.26 158.044 342.724 158.852Z" fill="#735F24"/>
        <path fill-rule="evenodd" clip-rule="evenodd" d="M351.081 179.679C348.017 180.224 345.105 177.719 344.574 174.081C344.047 170.445 346.101 167.057 349.165 166.511C352.23 165.965 355.141 168.471 355.672 172.105C356.198 175.741 354.145 179.133 351.081 179.679Z" fill="#735F24"/>
        <path fill-rule="evenodd" clip-rule="evenodd" d="M302.308 219.463C298.112 218.399 295.577 211.552 296.644 204.167C297.709 196.782 301.975 191.657 306.171 192.717C310.365 193.778 312.903 200.624 311.836 208.01C310.768 215.395 306.502 220.523 302.308 219.463Z" fill="#735F24"/>
        <path fill-rule="evenodd" clip-rule="evenodd" d="M286.178 246.732C283.25 245.991 281.481 241.214 282.223 236.057C282.969 230.905 285.943 227.329 288.871 228.07C291.8 228.81 293.569 233.587 292.827 238.739C292.08 243.891 289.106 247.472 286.178 246.732Z" fill="#735F24"/>
        <path fill-rule="evenodd" clip-rule="evenodd" d="M205.641 417.587C203.564 417.956 201.585 416.257 201.228 413.789C200.867 411.32 202.264 409.019 204.344 408.649C206.424 408.278 208.4 409.979 208.758 412.449C209.117 414.916 207.721 417.216 205.641 417.587Z" fill="#735F24"/>
        <path fill-rule="evenodd" clip-rule="evenodd" d="M239.521 377.985C237.441 378.356 235.465 376.655 235.106 374.188C234.748 371.718 236.144 369.418 238.221 369.048C240.301 368.678 242.277 370.378 242.637 372.845C242.995 375.315 241.601 377.615 239.521 377.985Z" fill="#735F24"/>
        <path fill-rule="evenodd" clip-rule="evenodd" d="M195.476 402.222C193.919 402.5 192.436 401.225 192.166 399.373C191.897 397.522 192.946 395.797 194.503 395.519C196.063 395.243 197.546 396.517 197.816 398.369C198.085 400.218 197.037 401.945 195.476 402.222Z" fill="#735F24"/>
        <path fill-rule="evenodd" clip-rule="evenodd" d="M209.693 392.247C208.133 392.526 206.65 391.251 206.38 389.4C206.113 387.547 207.16 385.824 208.719 385.545C210.279 385.266 211.76 386.544 212.029 388.393C212.299 390.245 211.253 391.971 209.693 392.247Z" fill="#735F24"/>
        <path fill-rule="evenodd" clip-rule="evenodd" d="M109.646 372.103C105.654 373.136 102.483 371.882 102.559 369.302C102.639 366.718 105.941 363.788 109.928 362.756C113.92 361.722 117.091 362.977 117.015 365.556C116.934 368.14 113.638 371.069 109.646 372.103Z" fill="#735F24"/>
        <path fill-rule="evenodd" clip-rule="evenodd" d="M43.6029 382.223C40.6149 382.998 38.2339 382.058 38.2918 380.121C38.3498 378.185 40.8295 375.988 43.8176 375.213C46.8121 374.439 49.193 375.379 49.1351 377.315C49.0763 379.249 46.5974 381.449 43.6029 382.223Z" fill="#735F24"/>
        <path fill-rule="evenodd" clip-rule="evenodd" d="M71.606 370.182C68.6124 370.958 66.2314 370.018 66.2894 368.082C66.3528 366.144 68.8271 363.948 71.8207 363.172C74.8142 362.395 77.1906 363.339 77.1318 365.273C77.0738 367.21 74.6004 369.408 71.606 370.182Z" fill="#735F24"/>
    </g>
    <defs>
        <clipPath id="clip0">
            <rect width="381" height="442" fill="white"/>
        </clipPath>
    </defs>
</svg>