<svg width="329" height="306" viewBox="0 0 329 306" fill="none" xmlns="http://www.w3.org/2000/svg">
    <path fill-rule="evenodd" clip-rule="evenodd" d="M75.8521 171.241C76.2321 166.75 81.8664 77.8899 186.207 1.58362C188.358 0.0115021 191.155 -0.225318 193.527 0.970182C195.892 2.16282 197.442 4.59946 197.577 7.32143C197.627 8.3571 197.337 103.997 244.938 149.368C247.868 152.165 247.636 151.655 244.938 154.693C242.239 157.732 237.293 157.492 234.355 154.693C192.797 115.077 193.103 41.4508 189.901 10.4992C92.3305 76.9548 92.4158 167.769 92.3304 168.762C92 172.651 87.7046 176.896 84.0062 176.896" fill="#20344B"/>
    <path fill-rule="evenodd" clip-rule="evenodd" d="M281.349 138.225C274.869 146.407 271 156.752 271 168C271 194.51 292.49 216 319 216C322.415 216 325.748 215.643 328.961 214.965C326.939 250.446 302.938 282.046 240.971 283.981C151.754 286.764 143.855 184.761 173.685 159.496C203.511 134.228 241.325 151.828 241.325 151.828C246.802 147.846 263.737 138.014 281.349 138.225Z" fill="#BA0965"/>
    <path fill-rule="evenodd" clip-rule="evenodd" d="M328.961 214.965C326.939 250.446 302.938 282.046 240.971 283.981C218.96 284.666 201.917 278.958 189.152 269.614C197.621 271.898 207.072 273.074 217.677 272.734C273.253 270.951 299.577 245.717 307.232 214.547C310.998 215.496 314.94 216 319 216C322.415 216 325.748 215.643 328.961 214.965Z" fill="#A10857"/>
    <path fill-rule="evenodd" clip-rule="evenodd" d="M210.361 160.602C211.039 160.649 211.416 160.696 211.416 160.696C174.832 173.686 173.192 215.799 173.192 215.799C159.804 159.402 202.992 160.087 210.361 160.602Z" fill="#FFC7DD"/>
    <path fill-rule="evenodd" clip-rule="evenodd" d="M101.995 305.254C101.596 274.118 76.2312 249 45 249C31.0418 249 18.2553 254.017 8.34577 262.347C-5.32516 231.96 -0.744221 194.77 15.3674 180.739C44.8834 155.037 82.9256 172.784 82.9256 172.784C92.7643 165.441 139.992 138.511 161.638 188.084C181.76 234.171 175.188 294.524 101.995 305.254Z" fill="#BA0965"/>
    <path fill-rule="evenodd" clip-rule="evenodd" d="M101.995 305.254C101.923 299.63 101.037 294.203 99.448 289.084C156.781 270.045 160.565 212.954 141.578 168.346C140.648 166.16 139.658 164.163 138.642 162.249C147.399 166.216 155.534 174.11 161.638 188.084C181.76 234.171 175.188 294.524 101.995 305.254Z" fill="#A10857"/>
    <path fill-rule="evenodd" clip-rule="evenodd" d="M19.0569 246.789C-3.91907 183.454 49.3433 183.454 49.3433 183.454C14.8794 201.966 19.0569 246.789 19.0569 246.789Z" fill="#FFC7DD"/>
</svg>