<svg xmlns="http://www.w3.org/2000/svg" id="Layer_1" x="0" y="0" version="1.1" viewBox="0 0 70 20" xml:space="preserve">
    <defs/>
    <g id="conveyor-belt">
        <path fill="#212121" d="M75.8 15.6h-68C3.5 15.6 0 12.1 0 7.9v-.2C0 3.5 3.5 0 7.7 0h68c4.3 0 7.7 3.5 7.7 7.7v.2c.1 4.2-3.4 7.7-7.6 7.7z"/>
        <path fill="#4B6B2D" d="M75.5 14.6H7.8C4 14.6 1 11.6 1 7.8v-.1C1 3.9 4 .9 7.8.9h67.7c3.8 0 6.8 3 6.8 6.8v.1c0 3.8-3.1 6.8-6.8 6.8z"/>
        <path fill="#3D5725" d="M75.5 4.7H7.8C4.1 4.7 1 11.6 1 7.9v-.2C1 3.9 4 .9 7.8.9h67.7c3.8 0 6.8 3 6.8 6.8v.1c0 3.8-3.1-3.1-6.8-3.1z"/>
        <path fill="#618A3A" d="M75.5 10.9H7.8C4.1 10.9 1 4 1 7.8v.1c0 3.8 3 6.8 6.8 6.8h67.7c3.8 0 6.8-3 6.8-6.8v-.1c0-3.8-3.1 3.1-6.8 3.1z"/>
        <g id="wheel_5_">
            <circle cx="74.7" cy="7.8" r="6.3" fill="#112418"/>
            <path fill="#446B53" d="M79.5 7.8c0 2.6-2.1 4.8-4.8 4.8-2.6 0-4.8-2.1-4.8-4.8C69.9 5.2 72 3 74.7 3c2.7.1 4.8 2.2 4.8 4.8z"/>
            <circle cx="74.7" cy="7.8" r="4.1" fill="#ADADAD"/>
            <path fill="#757575" d="M77.2 10.3c-1.4 1.4-3.6 1.4-4.9 0s-1.4-3.6 0-4.9l4.9 4.9z"/>
        </g>
        <g id="wheel_4_">
            <circle cx="8.5" cy="7.8" r="6.3" fill="#112418"/>
            <path fill="#446B53" d="M13.2 7.8c0 2.6-2.1 4.8-4.8 4.8s-4.8-2.1-4.8-4.8C3.6 5.2 5.7 3 8.4 3s4.8 2.2 4.8 4.8z"/>
            <circle cx="8.5" cy="7.8" r="4.1" fill="#ADADAD"/>
            <path fill="#757575" d="M11 10.3c-1.4 1.4-3.6 1.4-4.9 0s-1.4-3.6-.1-5l5 5z"/>
        </g>
        <g id="wheel_3_">
            <circle cx="56.2" cy="7.8" r="2.9" fill="#112418"/>
            <circle cx="56.2" cy="7.8" r="2.2" fill="#446B53"/>
            <path fill="#ADADAD" d="M58.1 7.8c0 1-.8 1.9-1.9 1.9s-1.9-.8-1.9-1.9.8-1.9 1.9-1.9 1.9.9 1.9 1.9z"/>
            <path fill="#757575" d="M57.3 8.9c-.6.6-1.6.6-2.3 0-.6-.6-.6-1.6 0-2.3l2.3 2.3z"/>
        </g>
        <g id="wheel_2_">
            <path fill="#112418" d="M49.3 7.8c0 1.6-1.3 2.9-2.9 2.9s-2.9-1.3-2.9-2.9 1.3-2.9 2.9-2.9 2.9 1.3 2.9 2.9z"/>
            <path fill="#446B53" d="M48.6 7.8c0 1.2-1 2.2-2.2 2.2-1.2 0-2.2-1-2.2-2.2s1-2.2 2.2-2.2c1.2 0 2.2 1 2.2 2.2z"/>
            <path fill="#ADADAD" d="M48.3 7.8c0 1-.8 1.9-1.9 1.9-1 0-1.9-.8-1.9-1.9s.8-1.9 1.9-1.9c1 0 1.9.9 1.9 1.9z"/>
            <path fill="#757575" d="M47.5 8.9c-.6.6-1.6.6-2.3 0-.6-.6-.6-1.6 0-2.3l2.3 2.3z"/>
        </g>
        <g id="wheel_1_">
            <circle cx="36.6" cy="7.8" r="2.9" fill="#112418"/>
            <circle cx="36.6" cy="7.8" r="2.2" fill="#446B53"/>
            <circle cx="36.6" cy="7.8" r="1.9" fill="#ADADAD"/>
            <path fill="#757575" d="M37.7 8.9c-.6.6-1.6.6-2.3 0-.6-.6-.6-1.6 0-2.3l2.3 2.3z"/>
        </g>
        <g id="wheel">
            <path fill="#112418" d="M29.6 7.8c0 1.6-1.3 2.9-2.9 2.9-1.6 0-2.9-1.3-2.9-2.9s1.3-2.9 2.9-2.9c1.6 0 2.9 1.3 2.9 2.9z"/>
            <path fill="#446B53" d="M28.9 7.8c0 1.2-1 2.2-2.2 2.2-1.2 0-2.2-1-2.2-2.2s1-2.2 2.2-2.2c1.2 0 2.2 1 2.2 2.2z"/>
            <path fill="#ADADAD" d="M28.6 7.8c0 1-.8 1.9-1.9 1.9-1 0-1.9-.8-1.9-1.9s.8-1.9 1.9-1.9c1.1 0 1.9.9 1.9 1.9z"/>
            <path fill="#757575" d="M27.9 8.9c-.6.6-1.6.6-2.3 0-.6-.6-.6-1.6 0-2.3l2.3 2.3z"/>
        </g>
    </g>
</svg>