<?xml version="1.0" encoding="utf-8"?>
<svg xmlns="http://www.w3.org/2000/svg" height="128" width="128" viewBox="0 0 128 128">
  <g>
    <path id="path1" transform="rotate(0,64,64) translate(34.2734102876889,30) scale(2.12499974668029,2.12499974668029)  " fill="#FFE41B" d="M19.476056,12.281196C20.691997,12.300178 22.280984,12.699191 24.087989,14.059164 24.087989,14.059164 28.293063,17.930128 27.959079,19.793118 27.959079,19.793118 25.952001,16.926142 24.374976,15.922153 24.374976,15.922153 19.308087,11.764203 17.493026,14.727157 17.388045,14.898145 17.447982,15.314157 17.447005,15.498145 17.435042,16.866144 17.540999,18.277142 17.887067,19.603117 18.347028,21.370098 19.379987,22.754088 20.343974,24.266068 21.051005,25.373051 21.69102,26.554039 22.289041,27.723036 22.603005,28.335028 23.488992,29.562006 23.324075,30.308003L23.247048,30.456011 22.874002,30.123007C14.923081,22.893095,15.264999,15.760137,15.270004,15.688146L15.126084,15.678167C15.123033,15.752141,14.794053,22.999081,22.800027,30.279011L23.16697,30.608017 22.439065,32.000002C22.439065,32.000002,15.701035,30.638016,12.34508,23.825062L12.293078,23.716086 12.29198,23.712088C12.268054,23.395073 11.69701,15.648138 13.648058,14.39815 13.976061,14.18816 14.569078,14.160176 15.097032,14.338153L15.179063,14.368152 15.197984,14.393175C15.197984,14.393175,15.201036,14.389177,15.207017,14.383165L15.210069,14.380175 15.217027,14.382158C15.296982,14.415178,15.374008,14.452166,15.447983,14.494157L15.449081,14.494157 15.801987,14.110158C15.809067,14.10317,16.514999,13.340177,17.503036,12.633183L17.571029,12.584171 17.634994,12.561193C18.066999,12.41419,18.694074,12.269173,19.476056,12.281196z M7.5419846,9.6082174C7.6080247,9.6092244 7.6750413,9.6112081 7.7430344,9.6141988 7.7430344,9.6141988 9.6780911,9.8211976 10.605092,11.190203L10.662099,11.280198 10.663076,11.303208C10.679067,11.515182,10.681996,11.618178,10.681996,11.668196L10.681996,12.009195 11.014028,12.087197C11.098012,12.107186,11.196034,12.131173,11.305042,12.160195L11.409046,12.189186 11.410023,12.189186C11.527088,12.225197,13.429064,12.819185,14.613999,13.793175L14.697984,13.865166 14.576036,13.868157C14.147081,13.889182 13.740099,13.99816 13.493029,14.156179 11.367054,15.519141 12.137074,23.34008 12.166004,23.666067L12.166981,23.666067 12.163075,23.694082C12.097035,24.129074 11.887074,25.153051 11.327015,25.433048 11.327015,25.433048 7.4560476,22.422091 7.8861008,17.834122 7.8861008,17.834122 8.1010667,15.182169 9.6420804,13.174163 9.6420804,13.174163 9.1290198,10.378199 6.0220886,11.812176 6.0220886,11.812176 4.8749953,12.290198 4.5891066,15.205149 4.5891066,15.205149 4.2550007,19.745113 0,22.374086 -1.5942351E-07,22.374086 2.8680392,17.929121 3.059079,13.915183 3.059079,13.915183 3.3840299,9.5612212 7.5419846,9.6082174z M19.522077,0.00030750598C21.113994,-0.014707056 23.107034,0.51730078 22.41697,2.2152826 22.191018,2.77027 21.768045,3.2272664 21.395976,3.6872536 20.39207,4.9292461 19.456037,6.2082559 18.675031,7.6062223 17.910016,8.9752284 17.045028,10.659203 17.252059,12.284186 16.21202,13.028168 15.485092,13.820183 15.485092,13.820183 14.481065,12.458197 11.11205,11.668196 11.11205,11.668196 11.11205,11.535201 11.091054,11.244188 11.0631,10.907186 10.951039,10.672203 11.238027,9.8842155 11.296009,9.61722 11.827015,7.2012278 12.933093,4.9852453 14.497056,3.0692784 15.470078,1.8762966 16.674056,0.65130222 18.179059,0.17428632 18.506085,0.071290661 18.991071,0.0053122848 19.522077,0.00030750598z" />
  </g>
</svg>

