<svg xmlns="http://www.w3.org/2000/svg" height="128" width="128" viewBox="0 0 128 128"><defs/><path fill="#FB3939" d="M75.378 44.664c4.426.003 16.088 1.792 17.385 16.066 1.607 17.646-7.223 28.76-7.223 28.76s-8.08 12.089-19.826 7.45a16.45 16.45 0 01-1.753-.797c-.833.315-1.62.563-2.4.765-12.888 3.328-18.931-7.418-18.931-7.418s-8.677-11.114-7.474-28.76c.973-14.302 12.587-16.065 17.34-16.065.317 0 .604.006.854.019 2.85.144 5.081 1.092 7.914 1.92v6.965c-1.415-.426-2.276-1.029-3.088-1.843-.325-.325-1.147-.3-1.472.028a.9.9 0 000 1.232c1.213 1.214 2.68 2.187 4.28 2.663.144.123.327.408.533.408h.255c.701 0 1.422.232 2.155.232.735 0 1.455-.232 2.154-.232h.257c.205 0 .374-.285.517-.408 1.6-.476 3.051-1.554 4.267-2.767.323-.33.293-.854-.03-1.181-.33-.328-.916-.328-1.243 0-.814.813-1.5 1.442-2.918 1.865v-7.433c2.833-.652 4.548-1.275 7.663-1.45.226-.012.489-.02.784-.02zm5.347-10.467c3.277.017 6.258.971 7.848 1.587l-22.103 8.84c1.11-2.352 4.014-7.499 9.021-9.503 1.719-.686 3.517-.935 5.234-.924zM65.514 30v24.64h-2.833V30.557h2.544c.096 0 .289-.542.289-.557zm-2.833 0v.557h-.053c-.095 0 .053-.542.053-.557z"/></svg>