<?xml version="1.0" encoding="utf-8"?>
<svg version="1.1" id="Ebene_1" xmlns="http://www.w3.org/2000/svg" xmlns:xlink="http://www.w3.org/1999/xlink" x="0px" y="0px"
	 viewBox="0 0 547 103" style="enable-background:new 0 0 547 103;" xml:space="preserve">
<style type="text/css">
	.st0{fill:#061E33;}
	.st1{fill:#064F4A;}
	.st2{fill:#08756E;}
	.st3{fill:#0A8F86;}
	.st4{fill:#064959;}
	.st5{fill:#8799B5;}
	.st6{fill:#384B64;}
</style>
<path class="st0" d="M496.6,102.1h-446C22.6,102.1,0,79.5,0,51.6v-1C0,22.6,22.6,0,50.5,0h446c27.9,0,50.5,22.6,50.5,50.5v1
	C547.1,79.5,524.5,102.1,496.6,102.1z"/>
<path class="st1" d="M494.8,96H51.2C26.6,96,6.7,76.1,6.7,51.5v-0.9C6.7,26,26.6,6.1,51.2,6.1h443.6c24.6,0,44.5,19.9,44.5,44.5v0.9
	C539.3,76.1,519.4,96,494.8,96z"/>
<path class="st2" d="M494.8,30.9H51.2c-24.6,0-44.5,45.1-44.5,20.6v-0.9C6.7,26,26.6,6.1,51.2,6.1h443.6c24.6,0,44.5,19.9,44.5,44.5
	v0.9C539.3,76.1,519.4,30.9,494.8,30.9z"/>
<path class="st3" d="M494.8,71.4H51.2c-24.6,0-44.5-45.1-44.5-20.6v0.9c0,24.6,19.9,44.5,44.5,44.5h443.6
	c24.6,0,44.5-19.9,44.5-44.5v-0.9C539.3,26.3,519.4,71.4,494.8,71.4z"/>
<path class="st4" d="M95.4,51c0,24.9-20.1,45-45,45s-45-20.1-45-45c0-24.9,20.1-45,45-45S95.4,26.1,95.4,51z"/>
<g id="wheel_x5F_5_x5F_">
	<path class="st5" d="M89.1,50.8c0,21.4-17.3,38.7-38.7,38.7c-21.4,0-38.7-17.3-38.7-38.7c0-21.4,17.3-38.7,38.7-38.7
		C71.7,12.1,89.1,29.4,89.1,50.8z"/>
	<path class="st6" d="M73.8,74.2c-12.9,12.9-33.9,12.9-46.8,0c-12.9-12.9-12.9-33.9,0-46.8L73.8,74.2z"/>
</g>
<path class="st4" d="M540.4,52c0,24.9-20.1,45-45,45s-45-20.1-45-45c0-24.9,20.1-45,45-45S540.4,27.1,540.4,52z"/>
<g id="wheel">
	<path class="st5" d="M534.1,51.8c0,21.4-17.3,38.7-38.7,38.7c-21.4,0-38.7-17.3-38.7-38.7c0-21.4,17.3-38.7,38.7-38.7
		C516.7,13.1,534.1,30.4,534.1,51.8z"/>
	<path class="st6" d="M518.8,75.2c-12.9,12.9-33.9,12.9-46.8,0c-12.9-12.9-12.9-33.9,0-46.8L518.8,75.2z"/>
</g>
<path class="st4" d="M388.4,35.4c7.9,0,14.3-6.4,14.3-14.3c0-7.9-6.4-14.3-14.3-14.3c-7.9,0-14.3,6.4-14.3,14.3
	C374.1,29,380.5,35.4,388.4,35.4z"/>
<g id="wheel_x5F_1_x5F_">
	<path class="st5" d="M400.7,21.1c0,6.8-5.5,12.3-12.3,12.3c-6.8,0-12.3-5.5-12.3-12.3c0-6.8,5.5-12.3,12.3-12.3
		C395.1,8.8,400.7,14.3,400.7,21.1z"/>
	<path class="st6" d="M395.8,28.5c-4.1,4.1-10.8,4.1-14.9,0c-4.1-4.1-4.1-10.8,0-14.9L395.8,28.5z"/>
</g>
<path class="st4" d="M310.7,35.4c7.9,0,14.3-6.4,14.3-14.3c0-7.9-6.4-14.3-14.3-14.3c-7.9,0-14.3,6.4-14.3,14.3
	C296.4,29,302.8,35.4,310.7,35.4z"/>
<g id="wheel_x5F_2_x5F_">
	<path class="st5" d="M323,21.1c0,6.8-5.5,12.3-12.3,12.3c-6.8,0-12.3-5.5-12.3-12.3c0-6.8,5.5-12.3,12.3-12.3
		C317.5,8.8,323,14.3,323,21.1z"/>
	<path class="st6" d="M318.1,28.5c-4.1,4.1-10.8,4.1-14.9,0c-4.1-4.1-4.1-10.8,0-14.9L318.1,28.5z"/>
</g>
<path class="st4" d="M233,35.4c7.9,0,14.3-6.4,14.3-14.3c0-7.9-6.4-14.3-14.3-14.3c-7.9,0-14.3,6.4-14.3,14.3
	C218.7,29,225.1,35.4,233,35.4z"/>
<g id="wheel_x5F_3_x5F_">
	<path class="st5" d="M233,33.4c6.8,0,12.3-5.5,12.3-12.3c0-6.8-5.5-12.3-12.3-12.3c-6.8,0-12.3,5.5-12.3,12.3
		C220.7,27.8,226.2,33.4,233,33.4z"/>
	<path class="st6" d="M240.4,28.5c-4.1,4.1-10.8,4.1-14.9,0c-4.1-4.1-4.1-10.8,0-14.9L240.4,28.5z"/>
</g>
<path class="st4" d="M155.3,35.4c7.9,0,14.3-6.4,14.3-14.3c0-7.9-6.4-14.3-14.3-14.3S141,13.2,141,21.1
	C141,29,147.4,35.4,155.3,35.4z"/>
<g id="wheel_x5F_4_x5F_">
	<path class="st5" d="M167.6,21.1c0,6.8-5.5,12.3-12.3,12.3c-6.8,0-12.3-5.5-12.3-12.3c0-6.8,5.5-12.3,12.3-12.3
		C162.1,8.8,167.6,14.3,167.6,21.1z"/>
	<path class="st6" d="M162.7,28.5c-4.1,4.1-10.8,4.1-14.9,0c-4.1-4.1-4.1-10.8,0-14.9L162.7,28.5z"/>
</g>
</svg>
