<svg width="328" height="327" viewBox="0 0 328 327" fill="none" xmlns="http://www.w3.org/2000/svg">
    <path fill-rule="evenodd" clip-rule="evenodd" d="M265.109 74.9581C242.661 90.7984 228 116.937 228 146.5C228 194.825 267.175 234 315.5 234C319.525 234 323.487 233.728 327.368 233.202C305.06 293.946 242.293 326.721 180.27 326.721C60.4439 326.721 0.53064 273.179 0.53064 181.148C0.53064 125.738 34.2546 82.0025 73.978 71.1749C119.608 58.7375 167.143 89.9897 173.135 91.0203C182.264 92.5906 186.561 71.1749 229.704 71.1749C243.045 71.1749 254.788 72.493 265.109 74.9581Z" fill="#F72300"/>
    <path fill-rule="evenodd" clip-rule="evenodd" d="M265.686 74.5542C259.176 79.0704 253.308 84.4476 248.247 90.5211C240.618 82.9716 231.993 76.8357 222.755 71.8636C236.683 70.6881 251.484 71.1293 265.686 74.5542ZM327.165 233.229C306.497 290.977 250.173 331.595 161.802 326.205C159.821 326.084 158.59 325.97 156.648 325.914C216.55 311.903 257.22 271.205 273.148 223.086C285.697 230.04 300.136 234 315.5 234C319.455 234 323.349 233.738 327.165 233.229H327.165Z" fill="#D60004"/>
    <path fill-rule="evenodd" clip-rule="evenodd" d="M90.2222 80.3249C8.91808 131.068 41.0256 254.967 41.0256 254.967C-7.59955 86.4525 90.2222 80.3249 90.2222 80.3249Z" fill="#FFBAAA"/>
    <path fill-rule="evenodd" clip-rule="evenodd" d="M228.802 0.773285L235.604 12.324C223.357 20.4196 212.453 30.4807 202.892 42.5071C188.55 60.5467 177.612 90.4907 177.612 90.4907C177.612 90.4907 176.899 90.5798 175.472 90.758C181.005 68.3557 187.097 51.6295 193.747 40.5792C200.398 29.5289 212.083 16.2603 228.802 0.773285Z" fill="#20344B"/>
</svg>