<svg width="64" height="112" viewBox="0 0 64 112" fill="none" xmlns="http://www.w3.org/2000/svg">
<path fill-rule="evenodd" clip-rule="evenodd" d="M32.1049 65.4382C34.4123 65.4382 37.3508 61.8727 45.5344 64.3895C53.718 66.9064 60.0139 76.764 60.0139 87.0412C60.0139 97.3184 54.5557 111.789 27.9074 111.789C1.25902 111.789 0.209839 91.1311 0.209839 87.0412C0.209839 82.9513 1.78361 71.7303 13.2197 65.4382C24.6557 59.1461 29.7975 65.4382 32.1049 65.4382Z" fill="#BA0965"/>
<path fill-rule="evenodd" clip-rule="evenodd" d="M60.6418 0.20892L63.9992 1.67708C63.9992 1.67708 51.4123 9.64876 41.7582 33.5581C32.1041 57.4674 32.1041 57.6787 32.1041 60.1948C32.1041 61.8721 32.6815 63.2005 33.8363 64.1798C33.2405 64.669 32.6631 64.9137 32.1041 64.9137C31.5451 64.9137 30.776 64.4593 29.7967 63.5506C28.118 60.6142 31.2305 50.2845 39.134 32.5613C50.9893 5.97651 60.6418 0.20892 60.6418 0.20892Z" fill="#061E33"/>
</svg>
