<svg width="331" height="311" viewBox="0 0 331 311" fill="none" xmlns="http://www.w3.org/2000/svg">
<g clip-path="url(#clip0)">
<path fill-rule="evenodd" clip-rule="evenodd" d="M76.852 173.241C77.232 168.75 82.8663 79.8899 187.207 3.58362C189.358 2.0115 192.155 1.77468 194.527 2.97018C196.892 4.16282 198.442 6.59946 198.577 9.32143C198.627 10.3571 198.337 105.997 245.938 151.368C248.868 154.165 248.636 153.655 245.938 156.693C243.239 159.732 238.293 159.492 235.355 156.693C193.797 117.077 194.103 43.4508 190.901 12.4992C93.3303 78.9548 93.4157 169.769 93.3303 170.762C92.9999 174.651 88.7045 178.896 85.006 178.896" fill="#20344B"/>
<path fill-rule="evenodd" clip-rule="evenodd" d="M174.685 161.496C144.855 186.761 152.754 288.764 241.971 285.981C331.785 283.177 341.844 218.054 320.821 169.12C299.797 120.187 252.25 146.612 242.325 153.828C242.325 153.828 204.511 136.228 174.685 161.496Z" fill="#BA0965"/>
<path fill-rule="evenodd" clip-rule="evenodd" d="M320.821 169.12C314.894 155.324 306.859 147.522 298.155 143.586C299.146 145.476 300.112 147.449 301.014 149.604C322.939 201.999 312.418 271.727 218.677 274.734C208.072 275.074 198.621 273.898 190.152 271.614C202.917 280.958 219.96 286.666 241.971 285.981C331.785 283.177 341.844 218.053 320.821 169.12Z" fill="#A10857"/>
<path fill-rule="evenodd" clip-rule="evenodd" d="M211.361 162.602C212.039 162.649 212.416 162.696 212.416 162.696C175.832 175.686 174.192 217.799 174.192 217.799C160.804 161.402 203.992 162.087 211.361 162.602Z" fill="#FFC7DD"/>
<path fill-rule="evenodd" clip-rule="evenodd" d="M83.9256 174.784C83.9256 174.784 45.8834 157.037 16.3674 182.739C-13.1487 208.444 -3.96632 311.871 85.2382 308.809C175.042 305.729 184.281 239.655 162.638 190.084C140.992 140.511 93.7643 167.441 83.9256 174.784Z" fill="#BA0965"/>
<path fill-rule="evenodd" clip-rule="evenodd" d="M162.638 190.084C156.534 176.11 148.399 168.216 139.642 164.249C140.658 166.163 141.648 168.16 142.578 170.346C165.169 223.422 155.524 294.169 61.8 297.467C51.1937 297.84 41.726 296.674 33.2255 294.379C46.1117 303.82 63.2295 309.565 85.2382 308.809C175.042 305.729 184.281 239.655 162.638 190.084Z" fill="#A10857"/>
<path fill-rule="evenodd" clip-rule="evenodd" d="M20.0569 248.789C-2.91911 185.454 50.3434 185.454 50.3434 185.454C15.8794 203.966 20.0569 248.789 20.0569 248.789Z" fill="#FFC7DD"/>
</g>
<defs>
<clipPath id="clip0">
<rect width="331" height="311" fill="white"/>
</clipPath>
</defs>
</svg>
