<svg width="381" height="442" viewBox="0 0 381 442" fill="none" xmlns="http://www.w3.org/2000/svg">
    <g clip-path="url(#clip0)">
        <path fill-rule="evenodd" clip-rule="evenodd" d="M285.012 17.8002C295.844 45.3728 299.598 64.5126 296.274 75.2196C291.288 91.2801 287.963 94.0495 281.318 109.004C274.672 123.959 269.141 145.563 263.601 175.473C258.061 205.383 248.091 246.368 221.509 271.293C194.928 296.217 171.122 312.836 137.339 326.129C114.818 334.992 74.2063 346.439 15.5057 360.47C13.2289 359.072 10.9212 359.626 8.58256 362.131C2.43572 370.551 0.886007 383.512 0.664062 388.275C1.10738 400.904 4.17176 407.181 9.85723 407.107C42.7524 429.632 64.3629 435.395 93.8101 440.894C156.904 444.476 221.509 433.306 287.964 393.702C332.932 366.903 373.985 305.451 379.523 237.692C383.769 187.474 365.863 132.084 344.82 94.421C342.051 88.8821 333.929 79.6507 331.16 61.9264C329.314 50.1102 327.96 33.3701 327.097 11.7061C328.575 3.95263 322.668 0.752647 309.377 2.10611C296.086 3.45957 287.964 8.69094 285.012 17.8002Z" fill="#E0951B"/>
        <path fill-rule="evenodd" clip-rule="evenodd" d="M285.607 19.4145C296.042 45.9115 299.598 64.5135 296.274 75.2205C291.288 91.281 287.963 94.0505 281.318 109.005C274.672 123.96 269.141 145.564 263.601 175.474C258.061 205.383 248.091 246.369 221.509 271.294C194.928 296.218 171.122 312.837 137.339 326.13C114.818 334.992 74.2065 346.439 15.5059 360.471C19.1978 363.61 21.459 367.902 22.2897 373.349C23.1204 378.796 23.3509 383.549 22.9814 387.611C30.9192 395.735 48.1789 398.551 74.7603 396.058C114.632 392.32 206.301 366.992 239.951 338.712C273.6 310.433 293.362 292.205 313.854 214.938C316.762 200.952 324.521 142.797 314.549 102.915C309.147 78.6823 311.637 83.1134 308.868 65.3891C307.022 53.5729 304.299 39.8635 300.7 24.261C298.948 24.2624 296.733 23.9862 294.057 23.4323C291.38 22.8784 288.564 21.5392 285.607 19.4145Z" fill="#F2C94C"/>
        <path fill-rule="evenodd" clip-rule="evenodd" d="M21.9434 390.59C20.4203 399.382 16.821 406.582 7.19904 406.441C1.24592 406.305 1.1072 387.957 1.31514 383.665C1.31514 377.017 6.06708 360.194 12.4304 360.194C18.7937 360.194 23.6045 373.211 21.9434 390.59Z" fill="#061E33"/>
        <path fill-rule="evenodd" clip-rule="evenodd" d="M313.162 21.6322C322.23 17.1665 326.903 12.8393 326.903 9.10053C326.903 5.3618 323.545 0.0652826 307.347 2.2462C291.149 4.42712 285.854 13.7047 285.854 17.8589C285.854 22.013 299.594 27.2057 313.162 21.6322Z" fill="#061E33" stroke="black" stroke-width="3"/>
        <path fill-rule="evenodd" clip-rule="evenodd" d="M294.676 140C294.676 140 301.772 314.63 143.947 346.135C143.947 346.135 268.673 322.433 294.676 140Z" fill="#F5D982"/>
        <path fill-rule="evenodd" clip-rule="evenodd" d="M345.052 158.02C338.826 159.159 332.977 154.274 331.982 147.107C330.984 139.942 335.224 133.209 341.448 132.067C347.669 130.926 353.522 135.81 354.516 142.976C355.511 150.143 351.273 156.879 345.052 158.02Z" fill="#735F24"/>
        <path fill-rule="evenodd" clip-rule="evenodd" d="M350.227 187.585C345.66 188.368 341.265 184.451 340.403 178.833C339.549 173.218 342.552 168.033 347.119 167.25C351.685 166.466 356.081 170.383 356.941 175.996C357.795 181.61 354.793 186.801 350.227 187.585Z" fill="#735F24"/>
        <path fill-rule="evenodd" clip-rule="evenodd" d="M301.402 219.431C296.806 218.232 294.033 210.499 295.207 202.157C296.377 193.814 301.053 188.022 305.649 189.218C310.242 190.413 313.018 198.146 311.844 206.488C310.671 214.831 305.994 220.627 301.402 219.431Z" fill="#735F24"/>
        <path fill-rule="evenodd" clip-rule="evenodd" d="M286.809 246.727C283.449 245.85 281.421 240.178 282.277 234.054C283.137 227.936 286.553 223.688 289.914 224.565C293.274 225.442 295.301 231.114 294.446 237.232C293.586 243.35 290.169 247.604 286.809 246.727Z" fill="#735F24"/>
        <path fill-rule="evenodd" clip-rule="evenodd" d="M212.058 416.103C208.075 416.811 204.28 413.552 203.596 408.82C202.904 404.085 205.582 399.674 209.57 398.964C213.558 398.254 217.348 401.514 218.034 406.251C218.724 410.981 216.046 415.393 212.058 416.103Z" fill="#735F24"/>
        <path fill-rule="evenodd" clip-rule="evenodd" d="M242.737 376.83C238.313 377.618 234.11 374.001 233.345 368.754C232.583 363.5 235.554 358.607 239.972 357.821C244.396 357.033 248.599 360.65 249.365 365.897C250.126 371.151 247.161 376.043 242.737 376.83Z" fill="#735F24"/>
        <path fill-rule="evenodd" clip-rule="evenodd" d="M197.563 402.795C194.48 403.346 191.543 400.821 191.009 397.155C190.475 393.488 192.553 390.073 195.635 389.522C198.725 388.975 201.663 391.499 202.197 395.166C202.729 398.827 200.653 402.247 197.563 402.795Z" fill="#735F24"/>
        <path fill-rule="evenodd" clip-rule="evenodd" d="M211.637 392.275C209.118 392.726 206.721 390.667 206.286 387.676C205.855 384.683 207.545 381.899 210.064 381.448C212.583 380.998 214.977 383.063 215.411 386.049C215.846 389.04 214.157 391.829 211.637 392.275Z" fill="#735F24"/>
        <path fill-rule="evenodd" clip-rule="evenodd" d="M116.217 377.017C109.141 378.849 103.52 376.625 103.655 372.053C103.798 367.473 109.651 362.279 116.717 360.45C123.792 358.618 129.413 360.842 129.278 365.414C129.135 369.994 123.292 375.184 116.217 377.017Z" fill="#735F24"/>
        <path fill-rule="evenodd" clip-rule="evenodd" d="M48.5826 385.95C43.2607 387.329 39.02 385.655 39.1232 382.207C39.2265 378.758 43.643 374.844 48.965 373.464C54.2982 372.086 58.5389 373.76 58.4357 377.209C58.3309 380.653 53.9159 384.571 48.5826 385.95Z" fill="#735F24"/>
        <path fill-rule="evenodd" clip-rule="evenodd" d="M79.0564 375.751C72.5676 377.434 67.4067 375.396 67.5323 371.199C67.6698 366.998 73.0329 362.239 79.5218 360.556C86.0106 358.873 91.1615 360.92 91.034 365.111C90.9084 369.308 85.5471 374.073 79.0564 375.751Z" fill="#735F24"/>
    </g>
    <defs>
        <clipPath id="clip0">
            <rect width="381" height="442" fill="white"/>
        </clipPath>
    </defs>
</svg>
