<svg width="330" height="307" viewBox="0 0 330 307" fill="none" xmlns="http://www.w3.org/2000/svg">
    <path fill-rule="evenodd" clip-rule="evenodd" d="M75.8518 171.241C76.2318 166.75 81.8661 77.8899 186.207 1.58362C188.358 0.0115021 191.155 -0.225318 193.527 0.970182C195.892 2.16282 197.442 4.59946 197.577 7.32143C197.627 8.3571 197.337 103.997 244.938 149.368C247.868 152.165 247.636 151.655 244.938 154.693C242.239 157.732 237.293 157.492 234.355 154.693C192.797 115.077 193.103 41.4508 189.901 10.4992C92.3302 76.9548 92.4155 167.769 92.3301 168.762C91.9997 172.651 87.7043 176.896 84.0059 176.896" fill="#20344B"/>
    <path fill-rule="evenodd" clip-rule="evenodd" d="M173.685 159.496C143.855 184.761 151.754 286.764 240.971 283.981C330.785 281.177 340.844 216.054 319.821 167.12C298.797 118.187 251.25 144.612 241.325 151.828C241.325 151.828 203.511 134.228 173.685 159.496Z" fill="#BA0965"/>
    <path fill-rule="evenodd" clip-rule="evenodd" d="M319.821 167.12C313.894 153.324 305.859 145.522 297.155 141.586C298.146 143.476 299.112 145.449 300.014 147.604C321.939 199.999 311.418 269.727 217.677 272.734C207.072 273.074 197.621 271.898 189.152 269.614C201.917 278.958 218.96 284.666 240.971 283.981C330.785 281.177 340.844 216.053 319.821 167.12Z" fill="#A10857"/>
    <path fill-rule="evenodd" clip-rule="evenodd" d="M210.361 160.602C211.039 160.649 211.416 160.696 211.416 160.696C174.832 173.686 173.192 215.799 173.192 215.799C159.804 159.402 202.992 160.087 210.361 160.602Z" fill="#FFC7DD"/>
    <path fill-rule="evenodd" clip-rule="evenodd" d="M82.9255 172.784C82.9255 172.784 44.8833 155.037 15.3673 180.739C-14.1488 206.444 -4.96641 309.871 84.2381 306.809C174.042 303.729 183.281 237.655 161.638 188.084C139.992 138.511 92.7642 165.441 82.9255 172.784Z" fill="#BA0965"/>
    <path fill-rule="evenodd" clip-rule="evenodd" d="M161.638 188.084C155.534 174.11 147.399 166.216 138.642 162.249C139.658 164.163 140.648 166.16 141.578 168.346C164.169 221.422 154.524 292.169 60.7998 295.467C50.1935 295.84 40.7257 294.674 32.2253 292.379C45.1115 301.82 62.2293 307.565 84.238 306.809C174.042 303.729 183.281 237.655 161.638 188.084Z" fill="#A10857"/>
    <path fill-rule="evenodd" clip-rule="evenodd" d="M19.0569 246.789C-3.91907 183.454 49.3433 183.454 49.3433 183.454C14.8794 201.966 19.0569 246.789 19.0569 246.789Z" fill="#FFC7DD"/>
    <path fill-rule="evenodd" clip-rule="evenodd" d="M98.9197 202.399C94.0746 200.966 91.7336 194.865 93.6918 188.76C95.6474 182.662 101.153 178.873 106 180.301C110.845 181.735 113.184 187.842 111.228 193.94C109.277 200.048 103.765 203.833 98.9197 202.399Z" fill="#061E33"/>
    <path fill-rule="evenodd" clip-rule="evenodd" d="M120.695 213.733C116.853 212.472 115 207.092 116.545 201.717C118.097 196.346 122.468 193.005 126.31 194.266C130.145 195.525 132.006 200.908 130.451 206.287C128.906 211.662 124.537 214.995 120.695 213.733Z" fill="#061E33"/>
    <path fill-rule="evenodd" clip-rule="evenodd" d="M52.7796 262.455C46.7966 260.957 43.5242 253.325 45.4592 245.4C47.4012 237.49 53.82 232.292 59.7922 233.786C65.7752 235.284 69.0621 242.908 67.1163 250.829C65.1743 258.739 58.7555 263.938 52.7796 262.455Z" fill="#061E33"/>
    <path fill-rule="evenodd" clip-rule="evenodd" d="M281.866 182.856C278.356 181.781 276.659 177.188 278.076 172.599C279.493 168.01 283.488 165.165 287 166.241C290.509 167.316 292.206 171.909 290.79 176.497C289.373 181.086 285.378 183.932 281.866 182.856Z" fill="#061E33"/>
    <path fill-rule="evenodd" clip-rule="evenodd" d="M279.265 204.879C276.498 204.029 275.155 200.407 276.275 196.784C277.394 193.165 280.546 190.918 283.318 191.769C286.087 192.615 287.428 196.241 286.31 199.86C285.19 203.483 282.037 205.73 279.265 204.879Z" fill="#061E33"/>
    <path fill-rule="evenodd" clip-rule="evenodd" d="M222.452 185.506C219.738 184.763 218.334 181.284 219.314 177.737C220.295 174.19 223.291 171.917 226.005 172.661C228.718 173.407 230.123 176.882 229.142 180.43C228.161 183.977 225.166 186.249 222.452 185.506Z" fill="#061E33"/>
    <path fill-rule="evenodd" clip-rule="evenodd" d="M215.276 209.019C212.076 208.255 210.413 203.989 211.561 199.49C212.709 194.991 216.234 191.965 219.434 192.729C222.633 193.496 224.298 197.759 223.15 202.257C222.002 206.756 218.477 209.783 215.276 209.019Z" fill="#061E33"/>
    <path fill-rule="evenodd" clip-rule="evenodd" d="M196.216 256.36C193.56 255.713 192.134 252.296 193.03 248.727C193.926 245.158 196.806 242.79 199.463 243.436C202.118 244.085 203.545 247.499 202.649 251.068C201.753 254.637 198.873 257.006 196.216 256.36Z" fill="#061E33"/>
    <path fill-rule="evenodd" clip-rule="evenodd" d="M194.106 202.662C191.009 201.866 189.187 198.315 190.035 194.729C190.883 191.143 194.08 188.883 197.176 189.679C200.271 190.478 202.094 194.026 201.246 197.612C200.399 201.197 197.202 203.458 194.106 202.662Z" fill="#061E33"/>
    <path fill-rule="evenodd" clip-rule="evenodd" d="M203.452 188.117C199.675 187.139 197.424 182.885 198.422 178.616C199.42 174.347 203.29 171.681 207.067 172.66C210.842 173.642 213.094 177.892 212.096 182.16C211.098 186.429 207.228 189.095 203.452 188.117Z" fill="#061E33"/>
</svg>