<svg width="381" height="442" viewBox="0 0 381 442" fill="none" xmlns="http://www.w3.org/2000/svg">
    <path fill-rule="evenodd" clip-rule="evenodd" d="M380.151 222.66C332.204 228.277 295 269.044 295 318.5C295 339.49 301.702 358.915 313.082 374.751C304.999 382.201 296.553 388.583 287.964 393.702C221.509 433.306 156.904 444.476 93.8103 440.894C64.3631 435.395 42.7526 429.632 9.85735 407.107C4.17188 407.181 1.1075 400.904 0.664185 388.275C0.886129 383.512 2.43584 370.551 8.58268 362.131C10.9214 359.626 13.2291 359.072 15.5059 360.47C74.2065 346.439 114.818 334.992 137.339 326.129C171.122 312.836 194.928 296.217 221.509 271.293C248.091 246.368 258.061 205.383 263.601 175.473C269.141 145.563 274.672 123.959 281.318 109.004C287.963 94.0495 291.288 91.2801 296.274 75.2196C299.598 64.5126 295.844 45.3728 285.012 17.8002C287.964 8.69094 296.086 3.45957 309.377 2.10611C322.668 0.752647 328.575 3.95263 327.097 11.7061C327.96 33.3701 329.314 50.1102 331.16 61.9264C333.929 79.6507 342.051 88.8821 344.82 94.421C363.782 128.359 380.196 176.69 380.151 222.66V222.66Z" fill="#E0951B"/>
    <path fill-rule="evenodd" clip-rule="evenodd" d="M285.607 19.4145C296.042 45.9115 299.598 64.5135 296.274 75.2205C291.288 91.281 287.963 94.0505 281.318 109.005C274.672 123.96 269.141 145.564 263.601 175.474C258.061 205.383 248.091 246.369 221.509 271.294C194.928 296.218 171.122 312.837 137.339 326.13C114.818 334.992 74.2065 346.439 15.5059 360.471C19.1978 363.61 21.459 367.902 22.2897 373.349C23.1204 378.796 23.3509 383.549 22.9814 387.611C30.9192 395.735 48.1789 398.551 74.7603 396.058C114.632 392.32 206.301 366.992 239.951 338.712C273.6 310.433 293.362 292.205 313.854 214.938C316.762 200.952 324.521 142.797 314.549 102.915C309.147 78.6823 311.637 83.1134 308.868 65.3891C307.022 53.5729 304.299 39.8635 300.7 24.261C298.948 24.2624 296.733 23.9862 294.057 23.4323C291.38 22.8784 288.564 21.5392 285.607 19.4145Z" fill="#F2C94C"/>
    <path fill-rule="evenodd" clip-rule="evenodd" d="M21.9435 390.59C20.4204 399.382 16.8211 406.582 7.19916 406.441C1.24604 406.305 1.10732 387.957 1.31526 383.665C1.31526 377.017 6.0672 360.194 12.4305 360.194C18.7938 360.194 23.6046 373.211 21.9435 390.59Z" fill="#061E33"/>
    <path fill-rule="evenodd" clip-rule="evenodd" d="M313.162 21.6322C322.23 17.1665 326.903 12.8393 326.903 9.10053C326.903 5.3618 323.545 0.0652826 307.347 2.2462C291.149 4.42712 285.854 13.7047 285.854 17.8589C285.854 22.013 299.594 27.2057 313.162 21.6322Z" fill="#061E33" stroke="black" stroke-width="3"/>
    <path fill-rule="evenodd" clip-rule="evenodd" d="M294.676 140C294.676 140 301.772 314.63 143.947 346.135C143.947 346.135 268.673 322.433 294.676 140Z" fill="#F5D982"/>
</svg>