<svg width="146" height="119" viewBox="0 0 146 119" fill="none" xmlns="http://www.w3.org/2000/svg">
<path fill-rule="evenodd" clip-rule="evenodd" d="M94.6176 118.784C126.026 118.784 145.783 101.322 145.783 67.2609C145.783 40.4125 131.01 17.462 94.6176 17.462C84.7321 17.462 72.7214 27.163 61.9196 27.163C59.5353 27.163 51.7075 15.9521 32.5884 21.126C15.9441 25.6302 2.35795 39.863 0.651787 61.8714C-0.10863 71.6803 -1.73809 86.0163 13.1443 102.293C36.2827 122.341 48.7753 109.838 59.7453 109.298C69.282 108.829 77.1271 118.784 94.6176 118.784Z" fill="#D60004"/>
<path fill-rule="evenodd" clip-rule="evenodd" d="M82.5595 0.215576L91.4673 1.29347C83.5004 5.89195 77.9238 9.91582 74.7373 13.3651C69.9575 18.539 64.3095 26.5163 64.3095 26.5163C64.3095 26.5163 63.4405 26.5163 61.7024 26.5163C64.8153 20.4789 68.074 15.3766 71.4783 11.2093C74.8827 7.04199 78.5764 3.37741 82.5595 0.215576Z" fill="#061E33"/>
</svg>
