<svg width="142" height="165" viewBox="0 0 142 165" fill="none" xmlns="http://www.w3.org/2000/svg">
<g clip-path="url(#clip0)">
<path fill-rule="evenodd" clip-rule="evenodd" d="M106.225 6.27159C110.262 16.5645 111.661 23.7095 110.422 27.7064C108.564 33.7019 107.325 34.7357 104.848 40.3184C102.371 45.9011 100.31 53.9658 98.245 65.1312C96.1802 76.2967 92.4643 91.5966 82.5573 100.901C72.6503 110.206 63.7778 116.409 51.1868 121.372C42.7929 124.68 27.657 128.953 5.77905 134.191C4.93048 133.669 4.07038 133.876 3.19875 134.811C0.907802 137.954 0.330217 142.793 0.247498 144.571C0.412721 149.285 1.55483 151.629 3.67382 151.601C15.934 160.01 26.3638 164.214 34.9634 164.214C58.4787 165.551 82.5573 161.381 107.325 146.597C123.424 135.225 139.386 113.653 141.45 88.3581C143.032 69.6115 136.358 48.9342 128.516 34.8744C127.484 32.8067 124.456 29.3606 123.424 22.744C122.736 18.333 122.232 12.0839 121.91 3.99662C122.461 1.10224 120.26 -0.0923227 115.306 0.412928C110.352 0.918179 107.325 2.87107 106.225 6.27159Z" fill="#E0951B"/>
<path fill-rule="evenodd" clip-rule="evenodd" d="M106.447 6.87421C110.336 16.7656 111.661 23.7098 110.422 27.7068C108.564 33.7022 107.325 34.736 104.848 40.3188C102.371 45.9015 100.31 53.9662 98.245 65.1316C96.1802 76.297 92.4643 91.597 82.5573 100.901C72.6503 110.206 63.7777 116.41 51.1868 121.372C42.7929 124.68 27.657 128.954 5.77905 134.192C7.15502 135.363 7.9978 136.966 8.3074 138.999C8.61699 141.032 8.70292 142.807 8.56519 144.323C11.5237 147.356 17.9564 148.407 27.8633 147.477C42.7238 146.081 79.05 134.502 91.1751 123.44C101.65 113.102 109.337 108.708 116.975 79.8637C118.058 74.6429 120.95 52.9332 117.233 38.0451C115.22 28.9991 116.148 30.6532 115.116 24.0367C114.428 19.6256 113.413 14.5079 112.072 8.68342C111.419 8.68396 110.593 8.58084 109.596 8.37407C108.598 8.16731 107.549 7.66735 106.447 6.87421Z" fill="#F2C94C"/>
<path fill-rule="evenodd" clip-rule="evenodd" d="M8.17842 145.435C7.61073 148.717 6.26926 151.405 2.68314 151.353C0.46439 151.302 0.41269 144.452 0.490189 142.85C0.490189 140.368 2.26125 134.088 4.63287 134.088C7.00449 134.088 8.7975 138.948 8.17842 145.435Z" fill="#061E33"/>
<path fill-rule="evenodd" clip-rule="evenodd" d="M116.717 7.70205C120.096 6.03499 121.838 4.41963 121.838 3.02395C121.838 1.62827 120.586 -0.348935 114.549 0.46521C108.512 1.27935 106.539 4.7427 106.539 6.29345C106.539 7.8442 111.66 9.78264 116.717 7.70205Z" fill="#061E33" stroke="black" stroke-width="3"/>
</g>
<defs>
<clipPath id="clip0">
<rect width="142" height="165" fill="white"/>
</clipPath>
</defs>
</svg>
