<?xml version="1.0" encoding="utf-8"?>
<!-- Generator: Adobe Illustrator 22.1.0, SVG Export Plug-In . SVG Version: 6.00 Build 0)  -->
<svg version="1.1" id="gameboard" xmlns="http://www.w3.org/2000/svg" xmlns:xlink="http://www.w3.org/1999/xlink" x="0px" y="0px"
	 viewBox="0 0 768 968" style="enable-background:new 0 0 768 968;" xml:space="preserve">
<style type="text/css">
	.st0{fill:none;stroke:#FFA500;stroke-width:39;stroke-linecap:round;}
	.st1{clip-path:url(#SVGID_2_);}
	.st2{fill:#FFFFFF;fill-opacity:0.8;}
	.st3{fill:#F2C94C;}
	.st4{fill:#FFFFFF;filter:url(#Adobe_OpacityMaskFilter);}
	.st5{mask:url(#mask0_1_);}
	.st6{fill:#FFFFFE;}
	.st7{fill:#F4DD95;}
	.st8{fill:#E7EBF5;}
	.st9{clip-path:url(#SVGID_4_);}
	.st10{fill:#F5F6F7;}
	.st11{fill:#FBFCFD;}
	.st12{fill:#E0951B;}
	.st13{fill:#061E33;}
	.st14{fill:#064F4A;}
	.st15{fill:#08756E;}
	.st16{fill:#0A8F86;}
	.st17{fill:#064959;}
	.st18{fill:#8799B5;}
	.st19{fill:#384B64;}
	.st20{fill:none;}
</style>
<g id="liquid">
	<line id="line_1_" class="st0" x1="384.8" y1="540" x2="384.8" y2="540"/>
</g>
<g id="bottle-full">
	<defs>
		<rect id="SVGID_1_" x="324.6" y="710.8" width="118.7" height="257.2"/>
	</defs>
	<clipPath id="SVGID_2_">
		<use xlink:href="#SVGID_1_"  style="overflow:visible;"/>
	</clipPath>
	<g class="st1">
		<path class="st2" d="M422.5,785.4c-4.5-13.1-6.8-26.8-6.8-40.6v-28.7H352v28.7c0,13.8-2.3,27.5-6.8,40.6l-13.8,40.1
			c-4.5,13.1-6.8,26.8-6.8,40.6c0,66.3,0.5,100.3,1.6,101.9c0,0,112.5,0,115.3,0c1.7-3.3,2.2-37.3,1.4-101.9
			c0-13.8-2.3-27.5-6.8-40.6L422.5,785.4z"/>
		<path class="st3" d="M414.7,787.6l13.8,40.2c4.2,12.2,6.3,24.9,6.3,37.8v93.1H334.3v-93.1c0-12.9,2.1-25.6,6.3-37.8l13.8-40.2
			c4.8-14,7.3-28.6,7.3-43.4h45.7C407.4,758.9,409.8,773.5,414.7,787.6z"/>
		<defs>
			<filter id="Adobe_OpacityMaskFilter" filterUnits="userSpaceOnUse" x="324.9" y="715.6" width="59.9" height="252.2">
				<feColorMatrix  type="matrix" values="1 0 0 0 0  0 1 0 0 0  0 0 1 0 0  0 0 0 1 0"/>
			</filter>
		</defs>
		<mask maskUnits="userSpaceOnUse" x="324.9" y="715.6" width="59.9" height="252.2" id="mask0_1_">
			<path class="st4" d="M326.4,968.1c-2.4-2.3-2.9-36.4-1.5-102.3c0-13.8,2.3-27.5,6.9-40.6l13.9-40.2c4.5-13.1,6.9-26.8,6.9-40.6
				v-28.8h32.3v28.8h-23c0,14.8-2.5,29.4-7.3,43.4L340.5,828c-4.2,12.2-6.4,24.9-6.4,37.8v93.1l50.7-0.2v10.1
				C345.9,968.3,326.4,968.1,326.4,968.1z"/>
		</mask>
		<g class="st5">
			<path class="st6" d="M324.9,967.8h59.9V715.6h-59.9V967.8z"/>
		</g>
		<path class="st7" d="M383.9,958.7h-49.5v-93.1c0-12.9,2.1-25.6,6.2-37.8l13.6-40.2c4.8-14,7.2-28.6,7.2-43.4h22.5V958.7z"/>
		<path class="st3" d="M369.5,814.3c-3.1,0-5.6,2.6-5.6,5.8c0,3.2,2.5,5.8,5.6,5.8c3.1,0,5.6-2.6,5.6-5.8
			C375.1,816.9,372.6,814.3,369.5,814.3z"/>
		<path class="st3" d="M363.2,861.2c-3.1,0-5.6,2.6-5.6,5.8c0,3.2,2.5,5.8,5.6,5.8c3.1,0,5.6-2.6,5.6-5.8
			C368.8,863.8,366.3,861.2,363.2,861.2z"/>
		<path class="st3" d="M369.5,907.2c-3.1,0-5.6,2.6-5.6,5.8c0,3.2,2.5,5.8,5.6,5.8c3.1,0,5.6-2.6,5.6-5.8
			C375.1,909.8,372.6,907.2,369.5,907.2z"/>
		<path class="st3" d="M352,838c-3.1,0-5.6,2.6-5.6,5.8c0,3.2,2.5,5.8,5.6,5.8s5.6-2.6,5.6-5.8C357.6,840.6,355.1,838,352,838z"/>
		<path class="st3" d="M356.5,884.5c-3.1,0-5.6,2.6-5.6,5.8c0,3.2,2.5,5.8,5.6,5.8s5.6-2.6,5.6-5.8
			C362.1,887.1,359.6,884.5,356.5,884.5z"/>
		<path class="st3" d="M352,930.9c-3.1,0-5.6,2.6-5.6,5.8c0,3.2,2.5,5.8,5.6,5.8s5.6-2.6,5.6-5.8C357.6,933.5,355.1,930.9,352,930.9
			z"/>
		<path class="st8" d="M415.6,721.5h-63.4c-3,0-5.4-2.4-5.4-5.3c0-2.9,2.4-5.3,5.4-5.3h63.4c3,0,5.4,2.4,5.4,5.3
			C421,719.1,418.6,721.5,415.6,721.5z"/>
	</g>
</g>
<g id="bottle-empty">
	<defs>
		<rect id="SVGID_3_" x="324.6" y="710.8" width="118.7" height="257.2"/>
	</defs>
	<clipPath id="SVGID_4_">
		<use xlink:href="#SVGID_3_"  style="overflow:visible;"/>
	</clipPath>
	<g class="st9">
		<path class="st2" d="M422.5,782c-4.5-13.3-6.8-27.3-6.8-41.3v-29.3H352v29.3c0,14-2.3,28-6.8,41.3l-13.8,40.9
			c-4.5,13.3-6.8,27.3-6.8,41.3c0,67.6,0.5,102.1,1.6,103.8c0,0,112.5,0,115.3,0c1.7-3.4,2.2-38,1.4-103.8c0-14-2.3-28-6.8-41.3
			L422.5,782z"/>
		<path class="st10" d="M414.7,784.2l13.8,40.9c4.2,12.4,6.3,25.4,6.3,38.5v94.9H334.3v-94.9c0-13.1,2.1-26.1,6.3-38.5l13.8-40.9
			c4.8-14.3,7.3-29.2,7.3-44.3h45.7C407.4,755,409.8,769.9,414.7,784.2z"/>
		<path class="st11" d="M383.9,958.5h-49.5v-94.9c0-13.1,2.1-26.1,6.2-38.5l13.6-40.9c4.8-14.3,7.2-29.2,7.2-44.3h22.5V958.5z"/>
		<path class="st8" d="M416.5,721.5h-63.4c-3,0-5.4-2.4-5.4-5.3c0-2.9,2.4-5.3,5.4-5.3h63.4c3,0,5.4,2.4,5.4,5.3
			C421.9,719.1,419.5,721.5,416.5,721.5z"/>
	</g>
</g>
<g id="funnel">
	<path class="st3" d="M334.7,521.5h99.2v51h-99.2V521.5z"/>
	<path class="st6" d="M430.1,569.8V551l-3.3,16.3l-90,2.5H430.1z"/>
	<path class="st3" d="M493.7,395.5H275.4l29.2,126h159.8L493.7,395.5z"/>
	<path class="st6" d="M299.5,513H452l17-61.7l-21.3,54.9L299.5,513z"/>
	<path class="st12" d="M271.4,395.5v12.3h225.3v-12.3H271.4z"/>
</g>
<g id="conveyor-belt">
	<path class="st13" d="M329.9,200h-446c-28,0-50.6-22.6-50.6-50.5v-1c0-28,22.6-50.6,50.5-50.6h446c27.9,0,50.5,22.6,50.5,50.5v0.9
		C380.4,177.4,357.8,200,329.9,200z"/>
	<path class="st14" d="M327.8,194h-444c-24.6,0-44.5-19.9-44.5-44.5v-1c0-24.6,19.9-44.5,44.5-44.5h444c24.6,0,44.5,19.9,44.5,44.5
		v1C372.3,174.1,352.4,194,327.8,194z"/>
	<path class="st15" d="M327.8,129h-443.9c-24.6,0-44.5,45.5-44.5,20.8v-1.3c0-24.6,19.9-44.5,44.5-44.5h444
		c24.6,0,44.5,19.9,44.5,44.5v1.3C372.3,174.6,352.4,129,327.8,129z"/>
	<path class="st16" d="M327.8,169h-443.9c-24.6,0-44.5-45.5-44.5-20.8v1.3c0,24.6,19.9,44.5,44.5,44.5h444
		c24.6,0,44.5-19.9,44.5-44.5v-1.3C372.3,123.5,352.4,169,327.8,169z"/>
	<path class="st17" d="M-71.6,148.6c0,24.9-20.1,45-45,45s-45-20.1-45-45s20.1-45,45-45S-71.6,123.7-71.6,148.6z"/>
	<g id="wheel_x5F_5_x5F__1_">
		<path class="st18" d="M-77.9,148.4c0,21.4-17.3,38.7-38.7,38.7s-38.7-17.3-38.7-38.7s17.3-38.7,38.7-38.7
			C-95.3,109.7-77.9,127-77.9,148.4z"/>
		<path class="st19" d="M-93.2,171.8c-12.9,12.9-33.9,12.9-46.8,0s-12.9-33.9,0-46.8L-93.2,171.8z"/>
	</g>
	<path class="st17" d="M373.4,149.6c0,24.9-20.1,45-45,45s-45-20.1-45-45s20.1-45,45-45C353.3,104.6,373.4,124.7,373.4,149.6z"/>
	<g id="wheel_1_">
		<path class="st18" d="M367.1,149.4c0,21.4-17.3,38.7-38.7,38.7c-21.4,0-38.7-17.3-38.7-38.7s17.3-38.7,38.7-38.7
			C349.7,110.7,367.1,128,367.1,149.4z"/>
		<path class="st19" d="M351.8,172.8c-12.9,12.9-33.9,12.9-46.8,0s-12.9-33.9,0-46.8L351.8,172.8z"/>
	</g>
	<path class="st17" d="M221.4,133c7.9,0,14.3-6.4,14.3-14.3s-6.4-14.3-14.3-14.3s-14.3,6.4-14.3,14.3S213.5,133,221.4,133z"/>
	<g id="wheel_x5F_1_x5F__1_">
		<path class="st18" d="M233.7,118.7c0,6.8-5.5,12.3-12.3,12.3s-12.3-5.5-12.3-12.3s5.5-12.3,12.3-12.3
			C228.1,106.4,233.7,111.9,233.7,118.7z"/>
		<path class="st19" d="M228.8,126.1c-4.1,4.1-10.8,4.1-14.9,0s-4.1-10.8,0-14.9L228.8,126.1z"/>
	</g>
	<path class="st17" d="M143.7,133c7.9,0,14.3-6.4,14.3-14.3s-6.4-14.3-14.3-14.3c-7.9,0-14.3,6.4-14.3,14.3S135.8,133,143.7,133z"/>
	<g id="wheel_x5F_2_x5F__1_">
		<path class="st18" d="M156,118.7c0,6.8-5.5,12.3-12.3,12.3s-12.3-5.5-12.3-12.3s5.5-12.3,12.3-12.3S156,111.9,156,118.7z"/>
		<path class="st19" d="M151.1,126.1c-4.1,4.1-10.8,4.1-14.9,0c-4.1-4.1-4.1-10.8,0-14.9L151.1,126.1z"/>
	</g>
	<path class="st17" d="M66,133c7.9,0,14.3-6.4,14.3-14.3s-6.4-14.3-14.3-14.3s-14.3,6.4-14.3,14.3S58.1,133,66,133z"/>
	<g id="wheel_x5F_3_x5F__1_">
		<path class="st18" d="M66,131c6.8,0,12.3-5.5,12.3-12.3s-5.5-12.3-12.3-12.3c-6.8,0-12.3,5.5-12.3,12.3
			C53.7,125.4,59.2,131,66,131z"/>
		<path class="st19" d="M73.4,126.1c-4.1,4.1-10.8,4.1-14.9,0s-4.1-10.8,0-14.9L73.4,126.1z"/>
	</g>
	<path class="st17" d="M-11.7,133c7.9,0,14.3-6.4,14.3-14.3s-6.4-14.3-14.3-14.3S-26,110.8-26,118.7S-19.6,133-11.7,133z"/>
	<g id="wheel_x5F_4_x5F__1_">
		<path class="st18" d="M0.6,118.7c0,6.8-5.5,12.3-12.3,12.3S-24,125.5-24,118.7s5.5-12.3,12.3-12.3S0.6,111.9,0.6,118.7z"/>
		<path class="st19" d="M-4.3,126.1c-4.1,4.1-10.8,4.1-14.9,0s-4.1-10.8,0-14.9L-4.3,126.1z"/>
	</g>
</g>
<path id="fruit-move-path" class="st20" d="M0.6,97.9c0,0,315.5-1.5,330.4,0c82.9,8.5,67.9,402.7,67.9,402.7"/>
</svg>
